<?xml version="1.0" encoding="UTF-8" standalone="no"?>
<!DOCTYPE svg PUBLIC "-//W3C//DTD SVG 1.1//EN" "http://www.w3.org/Graphics/SVG/1.1/DTD/svg11.dtd">
<svg width="100%" height="100%" viewBox="0 0 1000 1000" version="1.1" xmlns="http://www.w3.org/2000/svg" xmlns:xlink="http://www.w3.org/1999/xlink" xml:space="preserve" xmlns:serif="http://www.serif.com/" style="fill-rule:evenodd;clip-rule:evenodd;stroke-linejoin:round;stroke-miterlimit:2;">
    <g transform="matrix(1,0,0,1,0,-1089.804727)">
        <g id="Artboard1" transform="matrix(1,0,0,1,0,1089.804727)">
            <rect x="0" y="0" width="1000" height="1000" style="fill:none;"/>
            <g transform="matrix(5.779804,0,0,5.779804,-993.171866,-632.278175)">
                <path d="M293.258,225.999L305.015,266.82C291.62,275.659 275.578,280.805 258.343,280.805C246.608,280.805 235.425,278.419 225.255,274.106L266.643,168.51L189.264,182.247L208.562,186.28L184.609,237.999C177.503,225.588 173.44,211.216 173.44,195.903C173.44,190.562 173.935,185.335 174.88,180.267C201.5,164.48 215.585,160.77 233.149,157.449C267.189,151.013 287.549,170.537 288.173,188.726C289.511,227.671 241.16,239.999 241.572,244.198C241.801,246.533 271.15,242.908 292.509,223.4L292.522,223.443C302.104,214.732 309.902,202.669 313.03,186.751C314.187,180.864 314.412,175.467 313.841,170.555L313.868,170.555L313.553,169.368C309.672,144.474 284.95,132.488 259.056,132.347C219.911,132.135 194.278,148.953 180.889,161.099C194.19,131.575 223.883,111 258.343,111C305.202,111 343.246,149.044 343.246,195.903C343.246,211.392 339.089,225.918 331.831,238.425L316.608,180.91C316.418,182.967 316.111,185.087 315.682,187.272C312.334,204.308 303.609,216.884 293.258,225.999Z" style="fill:rgb(41,93,52);"/>
            </g>
        </g>
    </g>
</svg>
