<?xml version="1.0" encoding="UTF-8" standalone="no"?>
<!DOCTYPE svg PUBLIC "-//W3C//DTD SVG 1.1//EN" "http://www.w3.org/Graphics/SVG/1.1/DTD/svg11.dtd">
<svg width="100%" height="100%" viewBox="0 0 1441 417" version="1.1" xmlns="http://www.w3.org/2000/svg" xmlns:xlink="http://www.w3.org/1999/xlink" xml:space="preserve" xmlns:serif="http://www.serif.com/" style="fill-rule:evenodd;clip-rule:evenodd;stroke-linejoin:round;stroke-miterlimit:2;">
    <g transform="matrix(1,0,0,1,-1252.136692,-293.382823)">
        <g id="Artboard1" transform="matrix(1.440641,0,0,0.416016,1252.136692,293.382823)">
            <rect x="0" y="0" width="1000" height="1000" style="fill:none;"/>
            <g transform="matrix(1.63252,0,0,5.653332,-127.062288,-948.427606)">
                <g transform="matrix(1,0,0,1,216.246424,-101.406183)">
                    <g transform="matrix(1.898383,0,0,1.467173,-51.815575,-158.545665)">
                        <g transform="matrix(1,0,0,1,-7.374696,0)">
                            <path d="M75.54,359.238L75.54,323.459L84.499,323.459C87.894,323.459 90.107,323.638 91.138,323.996C92.723,324.533 94.05,325.7 95.118,327.498C96.187,329.296 96.722,331.619 96.722,334.466C96.722,336.662 96.414,338.509 95.797,340.006C95.181,341.503 94.398,342.678 93.449,343.533C92.5,344.387 91.535,344.952 90.554,345.229C89.221,345.571 87.291,345.741 84.763,345.741L81.123,345.741L81.123,359.238L75.54,359.238ZM81.123,329.512L81.123,339.664L84.178,339.664C86.379,339.664 87.85,339.477 88.592,339.103C89.334,338.729 89.916,338.143 90.337,337.346C90.758,336.549 90.969,335.621 90.969,334.564C90.969,333.262 90.673,332.188 90.082,331.342C89.491,330.496 88.743,329.967 87.838,329.756C87.171,329.593 85.832,329.512 83.82,329.512L81.123,329.512Z" style="fill:rgb(41,93,52);fill-rule:nonzero;"/>
                        </g>
                        <g transform="matrix(1,0,0,1,-4.740876,0)">
                            <path d="M123.374,359.238L117.3,359.238L114.886,351.111L103.833,351.111L101.55,359.238L95.628,359.238L106.398,323.459L112.302,323.459L123.374,359.238ZM113.094,345.082L109.284,331.806L105.549,345.082L113.094,345.082Z" style="fill:rgb(41,93,52);fill-rule:nonzero;"/>
                        </g>
                        <g transform="matrix(1,0,0,1,-4.740876,0)">
                            <path d="M126.335,359.238L126.335,323.459L135.294,323.459C138.69,323.459 140.903,323.638 141.934,323.996C143.518,324.533 144.845,325.7 145.914,327.498C146.983,329.296 147.517,331.619 147.517,334.466C147.517,336.662 147.209,338.509 146.593,340.006C145.977,341.503 145.194,342.678 144.244,343.533C143.295,344.387 142.33,344.952 141.349,345.229C140.016,345.571 138.086,345.741 135.558,345.741L131.918,345.741L131.918,359.238L126.335,359.238ZM131.918,329.512L131.918,339.664L134.974,339.664C137.174,339.664 138.646,339.477 139.387,339.103C140.129,338.729 140.711,338.143 141.132,337.346C141.553,336.549 141.764,335.621 141.764,334.564C141.764,333.262 141.469,332.188 140.878,331.342C140.287,330.496 139.538,329.967 138.633,329.756C137.967,329.593 136.627,329.512 134.615,329.512L131.918,329.512Z" style="fill:rgb(41,93,52);fill-rule:nonzero;"/>
                        </g>
                        <g transform="matrix(1,0,0,1,-1.580292,0)">
                            <path d="M174.169,359.238L168.095,359.238L165.681,351.111L154.628,351.111L152.346,359.238L146.423,359.238L157.193,323.459L163.097,323.459L174.169,359.238ZM163.889,345.082L160.079,331.806L156.344,345.082L163.889,345.082Z" style="fill:rgb(41,93,52);fill-rule:nonzero;"/>
                        </g>
                        <rect x="186.259" y="323.459" width="5.583" height="35.779" style="fill:rgb(41,93,52);fill-rule:nonzero;"/>
                        <path d="M197.162,359.238L197.162,323.459L206.121,323.459C209.516,323.459 211.729,323.638 212.761,323.996C214.345,324.533 215.672,325.7 216.74,327.498C217.809,329.296 218.344,331.619 218.344,334.466C218.344,336.662 218.036,338.509 217.42,340.006C216.803,341.503 216.021,342.678 215.071,343.533C214.122,344.387 213.157,344.952 212.176,345.229C210.843,345.571 208.913,345.741 206.385,345.741L202.745,345.741L202.745,359.238L197.162,359.238ZM202.745,329.512L202.745,339.664L205.801,339.664C208.001,339.664 209.472,339.477 210.214,339.103C210.956,338.729 211.538,338.143 211.959,337.346C212.38,336.549 212.591,335.621 212.591,334.564C212.591,333.262 212.295,332.188 211.704,331.342C211.113,330.496 210.365,329.967 209.46,329.756C208.793,329.593 207.454,329.512 205.442,329.512L202.745,329.512Z" style="fill:rgb(41,93,52);fill-rule:nonzero;"/>
                        <g transform="matrix(1,0,0,1,3.160584,0)">
                            <path d="M244.996,359.238L238.922,359.238L236.508,351.111L225.455,351.111L223.172,359.238L217.25,359.238L228.02,323.459L233.924,323.459L244.996,359.238ZM234.716,345.082L230.906,331.806L227.171,345.082L234.716,345.082Z" style="fill:rgb(41,93,52);fill-rule:nonzero;"/>
                        </g>
                        <g transform="matrix(1,0,0,1,6.943099,0)">
                            <path d="M251.673,359.238L251.673,344.179L241.544,323.459L248.089,323.459L254.596,337.614L260.972,323.459L267.404,323.459L257.237,344.228L257.237,359.238L251.673,359.238Z" style="fill:rgb(41,93,52);fill-rule:nonzero;"/>
                        </g>
                    </g>
                    <g>
                        <g transform="matrix(1,0,0,1.918732,-12.521484,-429.649997)">
                            <path d="M88.733,431.83L88.733,423.374L93.991,423.374C95.983,423.374 97.281,423.416 97.886,423.5C98.816,423.627 99.595,423.903 100.222,424.328C100.849,424.753 101.163,425.302 101.163,425.975C101.163,426.494 100.982,426.931 100.62,427.284C100.259,427.638 99.799,427.916 99.242,428.118C98.685,428.32 98.119,428.453 97.543,428.519C96.761,428.6 95.629,428.64 94.146,428.64L92.01,428.64L92.01,431.83L88.733,431.83ZM92.01,424.804L92.01,427.204L93.802,427.204C95.094,427.204 95.957,427.159 96.392,427.071C96.828,426.983 97.169,426.844 97.416,426.656C97.663,426.467 97.787,426.248 97.787,425.998C97.787,425.69 97.613,425.437 97.267,425.237C96.92,425.037 96.481,424.912 95.95,424.862C95.559,424.823 94.773,424.804 93.592,424.804L92.01,424.804Z" style="fill:rgb(41,93,52);fill-rule:nonzero;"/>
                            <path d="M103.941,431.83L103.941,423.443L107.217,423.443L107.217,430.405L115.362,430.405L115.362,431.83L103.941,431.83Z" style="fill:rgb(41,93,52);fill-rule:nonzero;"/>
                            <g transform="matrix(1,0,0,1,1,0)">
                                <path d="M132.329,431.83L128.765,431.83L127.349,429.909L120.863,429.909L119.524,431.83L116.049,431.83L122.368,423.374L125.832,423.374L132.329,431.83ZM126.297,428.484L124.062,425.346L121.87,428.484L126.297,428.484Z" style="fill:rgb(41,93,52);fill-rule:nonzero;"/>
                            </g>
                            <g transform="matrix(1,0,0,1,2,0)">
                                <path d="M134.1,431.83L134.1,423.374L137.288,423.374L143.928,429.021L143.928,423.374L146.972,423.374L146.972,431.83L143.685,431.83L137.144,426.315L137.144,431.83L134.1,431.83Z" style="fill:rgb(41,93,52);fill-rule:nonzero;"/>
                            </g>
                            <g transform="matrix(1,0,0,1,3.675781,0)">
                                <path d="M170.524,431.83L166.96,431.83L165.543,429.909L159.058,429.909L157.719,431.83L154.243,431.83L160.563,423.374L164.027,423.374L170.524,431.83ZM164.492,428.484L162.256,425.346L160.065,428.484L164.492,428.484Z" style="fill:rgb(41,93,52);fill-rule:nonzero;"/>
                            </g>
                            <g transform="matrix(1,0,0,1,4.113281,0)">
                                <path d="M172.25,423.374L178.238,423.374C179.588,423.374 180.618,423.427 181.326,423.535C182.278,423.681 183.093,423.941 183.772,424.314C184.451,424.687 184.967,425.143 185.321,425.684C185.676,426.224 185.853,426.89 185.853,427.682C185.853,428.378 185.687,428.978 185.355,429.482C184.949,430.097 184.37,430.595 183.617,430.976C183.049,431.264 182.281,431.489 181.315,431.651C180.592,431.77 179.625,431.83 178.415,431.83L172.25,431.83L172.25,423.374ZM175.526,424.804L175.526,430.405L177.972,430.405C178.887,430.405 179.548,430.378 179.954,430.324C180.485,430.255 180.926,430.138 181.276,429.972C181.627,429.807 181.913,429.535 182.134,429.156C182.355,428.777 182.466,428.261 182.466,427.607C182.466,426.954 182.355,426.452 182.134,426.102C181.913,425.752 181.603,425.479 181.204,425.283C180.806,425.087 180.3,424.954 179.688,424.885C179.23,424.831 178.334,424.804 176.998,424.804L175.526,424.804Z" style="fill:rgb(41,93,52);fill-rule:nonzero;"/>
                            </g>
                            <g transform="matrix(1,0,0,1,5.186523,0)">
                                <path d="M192.77,431.83L186.97,423.374L190.523,423.374L194.629,429.632L198.603,423.374L202.078,423.374L196.267,431.83L192.77,431.83Z" style="fill:rgb(41,93,52);fill-rule:nonzero;"/>
                            </g>
                            <g transform="matrix(1,0,0,1,5.782227,0)">
                                <rect x="203.65" y="423.374" width="3.276" height="8.456" style="fill:rgb(41,93,52);fill-rule:nonzero;"/>
                            </g>
                            <g transform="matrix(1,0,0,1,6.612305,0)">
                                <path d="M209.217,429.078L212.404,428.917C212.596,429.474 212.985,429.884 213.572,430.145C214.158,430.407 214.95,430.538 215.946,430.538C217.001,430.538 217.796,430.421 218.331,430.189C218.866,429.956 219.133,429.684 219.133,429.372C219.133,429.173 219.021,429.002 218.796,428.862C218.571,428.722 218.178,428.6 217.617,428.496C217.233,428.427 216.359,428.303 214.994,428.127C213.238,427.9 212.006,427.621 211.297,427.29C210.301,426.825 209.803,426.258 209.803,425.589C209.803,425.158 210.037,424.755 210.506,424.38C210.974,424.005 211.65,423.72 212.531,423.524C213.413,423.327 214.477,423.229 215.724,423.229C217.761,423.229 219.294,423.462 220.323,423.927C221.352,424.393 221.893,425.014 221.944,425.79L218.668,425.865C218.528,425.431 218.228,425.118 217.766,424.928C217.305,424.738 216.613,424.643 215.691,424.643C214.739,424.643 213.994,424.744 213.455,424.948C213.109,425.079 212.935,425.254 212.935,425.473C212.935,425.673 213.098,425.844 213.422,425.987C213.835,426.167 214.839,426.356 216.433,426.552C218.026,426.748 219.205,426.951 219.969,427.16C220.733,427.37 221.33,427.656 221.762,428.02C222.193,428.383 222.409,428.832 222.409,429.367C222.409,429.851 222.151,430.305 221.635,430.728C221.118,431.151 220.388,431.465 219.443,431.671C218.499,431.877 217.322,431.98 215.913,431.98C213.861,431.98 212.286,431.733 211.187,431.239C210.087,430.744 209.431,430.024 209.217,429.078Z" style="fill:rgb(41,93,52);fill-rule:nonzero;"/>
                            </g>
                            <g transform="matrix(1,0,0,1,7.485352,0)">
                                <path d="M224.501,427.654C224.501,426.792 224.748,426.069 225.243,425.485C225.612,425.054 226.115,424.668 226.753,424.325C227.392,423.983 228.091,423.729 228.851,423.564C229.862,423.341 231.027,423.229 232.348,423.229C234.739,423.229 236.652,423.616 238.087,424.389C239.522,425.162 240.239,426.236 240.239,427.613C240.239,428.978 239.527,430.046 238.103,430.817C236.679,431.588 234.776,431.974 232.392,431.974C229.98,431.974 228.061,431.59 226.637,430.823C225.213,430.056 224.501,428.999 224.501,427.654ZM227.877,427.596C227.877,428.553 228.301,429.279 229.15,429.773C229.998,430.268 231.075,430.515 232.381,430.515C233.687,430.515 234.759,430.269 235.596,429.779C236.434,429.289 236.853,428.553 236.853,427.573C236.853,426.604 236.445,425.881 235.63,425.404C234.814,424.927 233.732,424.689 232.381,424.689C231.031,424.689 229.943,424.93 229.116,425.413C228.29,425.895 227.877,426.623 227.877,427.596Z" style="fill:rgb(41,93,52);fill-rule:nonzero;"/>
                            </g>
                            <g transform="matrix(1,0,0,1,7.966797,0)">
                                <path d="M242.807,431.83L242.807,423.374L249.702,423.374C251.436,423.374 252.696,423.449 253.482,423.601C254.268,423.753 254.897,424.023 255.369,424.412C255.841,424.8 256.077,425.244 256.077,425.744C256.077,426.379 255.719,426.903 255.004,427.316C254.288,427.73 253.218,427.99 251.794,428.098C252.502,428.313 253.087,428.55 253.548,428.807C254.009,429.065 254.631,429.522 255.413,430.18L257.394,431.83L253.476,431.83L251.108,429.99C250.267,429.332 249.691,428.918 249.381,428.747C249.071,428.576 248.743,428.458 248.396,428.395C248.049,428.331 247.5,428.3 246.747,428.3L246.083,428.3L246.083,431.83L242.807,431.83ZM246.083,426.95L248.507,426.95C250.079,426.95 251.06,426.915 251.451,426.846C251.842,426.777 252.148,426.658 252.37,426.488C252.591,426.319 252.702,426.108 252.702,425.854C252.702,425.569 252.556,425.34 252.264,425.165C251.973,424.99 251.562,424.879 251.03,424.833C250.765,424.814 249.968,424.804 248.64,424.804L246.083,424.804L246.083,426.95Z" style="fill:rgb(41,93,52);fill-rule:nonzero;"/>
                            </g>
                            <g transform="matrix(1,0,0,1,39.445312,0)">
                                <path d="M265.463,431.83L265.463,423.374L270.72,423.374C272.712,423.374 274.011,423.416 274.616,423.5C275.545,423.627 276.324,423.903 276.951,424.328C277.578,424.753 277.892,425.302 277.892,425.975C277.892,426.494 277.711,426.931 277.349,427.284C276.988,427.638 276.529,427.916 275.971,428.118C275.414,428.32 274.848,428.453 274.273,428.519C273.49,428.6 272.358,428.64 270.875,428.64L268.739,428.64L268.739,431.83L265.463,431.83ZM268.739,424.804L268.739,427.204L270.532,427.204C271.823,427.204 272.686,427.159 273.122,427.071C273.557,426.983 273.898,426.844 274.145,426.656C274.392,426.467 274.516,426.248 274.516,425.998C274.516,425.69 274.343,425.437 273.996,425.237C273.649,425.037 273.21,424.912 272.679,424.862C272.288,424.823 271.502,424.804 270.321,424.804L268.739,424.804Z" style="fill:rgb(41,93,52);fill-rule:nonzero;"/>
                            </g>
                            <g transform="matrix(1,0,0,1,42.440429,0)">
                                <path d="M293.53,431.83L289.967,431.83L288.55,429.909L282.064,429.909L280.725,431.83L277.25,431.83L283.569,423.374L287.034,423.374L293.53,431.83ZM287.498,428.484L285.263,425.346L283.071,428.484L287.498,428.484Z" style="fill:rgb(41,93,52);fill-rule:nonzero;"/>
                            </g>
                            <g transform="matrix(1,0,0,1,45.46582,0)">
                                <path d="M297.448,431.83L297.448,428.271L291.505,423.374L295.345,423.374L299.164,426.719L302.905,423.374L306.679,423.374L300.713,428.282L300.713,431.83L297.448,431.83Z" style="fill:rgb(41,93,52);fill-rule:nonzero;"/>
                            </g>
                            <g transform="matrix(1,0,0,1,47.334961,0)">
                                <path d="M327.984,431.83L324.42,431.83L323.004,429.909L316.518,429.909L315.179,431.83L311.704,431.83L318.023,423.374L321.487,423.374L327.984,431.83ZM321.952,428.484L319.717,425.346L317.525,428.484L321.952,428.484Z" style="fill:rgb(41,93,52);fill-rule:nonzero;"/>
                            </g>
                            <g transform="matrix(1,0,0,1,47.958008,0)">
                                <path d="M329.711,423.374L335.698,423.374C337.049,423.374 338.078,423.427 338.786,423.535C339.738,423.681 340.553,423.941 341.232,424.314C341.911,424.687 342.427,425.143 342.782,425.684C343.136,426.224 343.313,426.89 343.313,427.682C343.313,428.378 343.147,428.978 342.815,429.482C342.409,430.097 341.83,430.595 341.077,430.976C340.509,431.264 339.742,431.489 338.775,431.651C338.052,431.77 337.085,431.83 335.875,431.83L329.711,431.83L329.711,423.374ZM332.987,424.804L332.987,430.405L335.433,430.405C336.348,430.405 337.008,430.378 337.414,430.324C337.945,430.255 338.386,430.138 338.736,429.972C339.087,429.807 339.373,429.535 339.594,429.156C339.816,428.777 339.926,428.261 339.926,427.607C339.926,426.954 339.816,426.452 339.594,426.102C339.373,425.752 339.063,425.479 338.664,425.283C338.266,425.087 337.761,424.954 337.148,424.885C336.691,424.831 335.794,424.804 334.459,424.804L332.987,424.804Z" style="fill:rgb(41,93,52);fill-rule:nonzero;"/>
                            </g>
                            <g transform="matrix(1,0,0,1,31.311523,0)">
                                <path d="M367.861,431.83L362.062,423.374L365.614,423.374L369.72,429.632L373.694,423.374L377.169,423.374L371.358,431.83L367.861,431.83Z" style="fill:rgb(41,93,52);fill-rule:nonzero;"/>
                            </g>
                            <g transform="matrix(1,0,0,1,31.838867,0)">
                                <rect x="378.741" y="423.374" width="3.276" height="8.456" style="fill:rgb(41,93,52);fill-rule:nonzero;"/>
                            </g>
                            <g transform="matrix(1,0,0,1,32.668945,0)">
                                <path d="M384.308,429.078L387.495,428.917C387.687,429.474 388.076,429.884 388.663,430.145C389.249,430.407 390.041,430.538 391.037,430.538C392.092,430.538 392.887,430.421 393.422,430.189C393.957,429.956 394.224,429.684 394.224,429.372C394.224,429.173 394.112,429.002 393.887,428.862C393.662,428.722 393.269,428.6 392.708,428.496C392.324,428.427 391.45,428.303 390.085,428.127C388.329,427.9 387.097,427.621 386.388,427.29C385.392,426.825 384.894,426.258 384.894,425.589C384.894,425.158 385.129,424.755 385.597,424.38C386.066,424.005 386.741,423.72 387.622,423.524C388.504,423.327 389.569,423.229 390.816,423.229C392.852,423.229 394.385,423.462 395.414,423.927C396.443,424.393 396.984,425.014 397.036,425.79L393.76,425.865C393.619,425.431 393.319,425.118 392.858,424.928C392.396,424.738 391.705,424.643 390.782,424.643C389.83,424.643 389.085,424.744 388.547,424.948C388.2,425.079 388.026,425.254 388.026,425.473C388.026,425.673 388.189,425.844 388.513,425.987C388.927,426.167 389.93,426.356 391.524,426.552C393.118,426.748 394.296,426.951 395.06,427.16C395.824,427.37 396.421,427.656 396.853,428.02C397.285,428.383 397.5,428.832 397.5,429.367C397.5,429.851 397.242,430.305 396.726,430.728C396.209,431.151 395.479,431.465 394.534,431.671C393.59,431.877 392.413,431.98 391.004,431.98C388.952,431.98 387.377,431.733 386.278,431.239C385.178,430.744 384.522,430.024 384.308,429.078Z" style="fill:rgb(41,93,52);fill-rule:nonzero;"/>
                            </g>
                            <g transform="matrix(1,0,0,1,33.602539,0)">
                                <path d="M399.592,427.654C399.592,426.792 399.839,426.069 400.334,425.485C400.703,425.054 401.206,424.668 401.844,424.325C402.483,423.983 403.182,423.729 403.942,423.564C404.953,423.341 406.118,423.229 407.439,423.229C409.83,423.229 411.743,423.616 413.178,424.389C414.613,425.162 415.33,426.236 415.33,427.613C415.33,428.978 414.618,430.046 413.194,430.817C411.77,431.588 409.867,431.974 407.483,431.974C405.071,431.974 403.152,431.59 401.728,430.823C400.304,430.056 399.592,428.999 399.592,427.654ZM402.968,427.596C402.968,428.553 403.392,429.279 404.241,429.773C405.089,430.268 406.166,430.515 407.472,430.515C408.778,430.515 409.85,430.269 410.688,429.779C411.525,429.289 411.944,428.553 411.944,427.573C411.944,426.604 411.536,425.881 410.721,425.404C409.905,424.927 408.823,424.689 407.472,424.689C406.122,424.689 405.034,424.93 404.207,425.413C403.381,425.895 402.968,426.623 402.968,427.596Z" style="fill:rgb(41,93,52);fill-rule:nonzero;"/>
                            </g>
                            <g transform="matrix(1,0,0,1,34.43164,0)">
                                <path d="M417.898,431.83L417.898,423.374L424.793,423.374C426.527,423.374 427.787,423.449 428.573,423.601C429.359,423.753 429.988,424.023 430.46,424.412C430.932,424.8 431.168,425.244 431.168,425.744C431.168,426.379 430.811,426.903 430.095,427.316C429.379,427.73 428.309,427.99 426.885,428.098C427.594,428.313 428.178,428.55 428.639,428.807C429.101,429.065 429.722,429.522 430.504,430.18L432.485,431.83L428.567,431.83L426.199,429.99C425.358,429.332 424.782,428.918 424.472,428.747C424.163,428.576 423.834,428.458 423.487,428.395C423.141,428.331 422.591,428.3 421.838,428.3L421.174,428.3L421.174,431.83L417.898,431.83ZM421.174,426.95L423.598,426.95C425.17,426.95 426.151,426.915 426.542,426.846C426.933,426.777 427.239,426.658 427.461,426.488C427.682,426.319 427.793,426.108 427.793,425.854C427.793,425.569 427.647,425.34 427.356,425.165C427.064,424.99 426.653,424.879 426.122,424.833C425.856,424.814 425.059,424.804 423.731,424.804L421.174,424.804L421.174,426.95Z" style="fill:rgb(41,93,52);fill-rule:nonzero;"/>
                            </g>
                        </g>
                        <g transform="matrix(1,0,0,1,-1,1)">
                            <circle cx="273.236" cy="390.358" r="2.236" style="fill:rgb(41,93,52);"/>
                        </g>
                    </g>
                </g>
                <g transform="matrix(0.986971,0,0,0.986971,-88.213122,62.857668)">
                    <path d="M293.258,225.999L305.015,266.82C291.62,275.659 275.578,280.805 258.343,280.805C246.608,280.805 235.425,278.419 225.255,274.106L266.643,168.51L189.264,182.247L208.562,186.28L184.609,237.999C177.503,225.588 173.44,211.216 173.44,195.903C173.44,190.562 173.935,185.335 174.88,180.267C201.5,164.48 215.585,160.77 233.149,157.449C267.189,151.013 287.549,170.537 288.173,188.726C289.511,227.671 241.16,239.999 241.572,244.198C241.801,246.533 271.15,242.908 292.509,223.4L292.522,223.443C302.104,214.732 309.902,202.669 313.03,186.751C314.187,180.864 314.412,175.467 313.841,170.555L313.868,170.555L313.553,169.368C309.672,144.474 284.95,132.488 259.056,132.347C219.911,132.135 194.278,148.953 180.889,161.099C194.19,131.575 223.883,111 258.343,111C305.202,111 343.246,149.044 343.246,195.903C343.246,211.392 339.089,225.918 331.831,238.425L316.608,180.91C316.418,182.967 316.111,185.087 315.682,187.272C312.334,204.308 303.609,216.884 293.258,225.999Z" style="fill:rgb(41,93,52);"/>
                </g>
            </g>
        </g>
    </g>
</svg>
